HIERARCHY
ROOT Hips
{
	OFFSET -0.001795 -0.223333 0.028219
	CHANNELS 6 Xposition Yposition Zposition Zrotation Yrotation Xrotation 
	JOINT LeftUpLeg
	{
		OFFSET 0.069520 -0.091406 -0.006815
		CHANNELS 3 Zrotation Yrotation Xrotation
		JOINT LeftLeg
		{
			OFFSET 0.034277 -0.375199 -0.004496
			CHANNELS 3 Zrotation Yrotation Xrotation
			JOINT LeftFoot
			{
				OFFSET -0.013596 -0.397961 -0.043693
				CHANNELS 3 Zrotation Yrotation Xrotation
				JOINT LeftToe
				{
					OFFSET 0.026358 -0.055791 0.119288
					CHANNELS 3 Zrotation Yrotation Xrotation
					End Site
					{
						OFFSET 0.000000 0.000000 0.000000
					}
				}
			}
		}
	}
	JOINT RightUpLeg
	{
		OFFSET -0.067670 -0.090522 -0.004320
		CHANNELS 3 Zrotation Yrotation Xrotation
		JOINT RightLeg
		{
			OFFSET -0.038290 -0.382569 -0.008850
			CHANNELS 3 Zrotation Yrotation Xrotation
			JOINT RightFoot
			{
				OFFSET 0.015774 -0.398415 -0.042312
				CHANNELS 3 Zrotation Yrotation Xrotation
				JOINT RightToe
				{
					OFFSET -0.025372 -0.048144 0.123348
					CHANNELS 3 Zrotation Yrotation Xrotation
					End Site
					{
						OFFSET 0.000000 0.000000 0.000000
					}
				}
			}
		}
	}
	JOINT Spine
	{
		OFFSET -0.002533 0.108963 -0.026696
		CHANNELS 3 Zrotation Yrotation Xrotation
		JOINT Spine1
		{
			OFFSET 0.005487 0.135180 0.001092
			CHANNELS 3 Zrotation Yrotation Xrotation
			JOINT Spine2
			{
				OFFSET 0.001457 0.052922 0.025425
				CHANNELS 3 Zrotation Yrotation Xrotation
				JOINT Neck
				{
					OFFSET -0.002778 0.213870 -0.042857
					CHANNELS 3 Zrotation Yrotation Xrotation
					JOINT Head
					{
						OFFSET 0.005152 0.064970 0.051349
						CHANNELS 3 Zrotation Yrotation Xrotation
						End Site
						{
							OFFSET 0.000000 0.000000 0.000000
						}
					}
				}
				JOINT LeftShoulder
				{
					OFFSET 0.078845 0.121749 -0.034090
					CHANNELS 3 Zrotation Yrotation Xrotation
					JOINT LeftArm
					{
						OFFSET 0.090977 0.030469 -0.008868
						CHANNELS 3 Zrotation Yrotation Xrotation
						JOINT LeftForeArm
						{
							OFFSET 0.259612 -0.012772 -0.027456
							CHANNELS 3 Zrotation Yrotation Xrotation
							JOINT LeftHand
							{
								OFFSET 0.249234 0.008986 -0.001171
								CHANNELS 3 Zrotation Yrotation Xrotation
								End Site
								{
									OFFSET 0.000000 0.000000 0.000000
								}
							}
						}
					}
				}
				JOINT RightShoulder
				{
					OFFSET -0.081759 0.118833 -0.038615
					CHANNELS 3 Zrotation Yrotation Xrotation
					JOINT RightArm
					{
						OFFSET -0.096012 0.032551 -0.009143
						CHANNELS 3 Zrotation Yrotation Xrotation
						JOINT RightForeArm
						{
							OFFSET -0.253742 -0.013329 -0.021401
							CHANNELS 3 Zrotation Yrotation Xrotation
							JOINT RightHand
							{
								OFFSET -0.255298 0.007772 -0.005559
								CHANNELS 3 Zrotation Yrotation Xrotation
								End Site
								{
									OFFSET 0.000000 0.000000 0.000000
								}
							}
						}
					}
				}
			}
		}
	}
}
MOTION
Frames: 17
Frame Time: 0.050000
-0.012895 0.946469 -0.030322 -1.551405 5.568243 7.603201 1.470680 -0.535445 -6.210435 2.263837 -0.197636 -0.422358 -2.288850 -0.310464 8.004663 0.000000 0.000000 0.000000 0.814697 0.733147 -7.035001 -3.663130 0.379252 -0.420738 4.498795 5.053450 11.253800 0.000000 0.000000 0.000000 6.994001 0.504904 -8.066492 -6.478464 2.853234 -5.566397 -4.073333 13.083814 -6.393475 15.161523 -6.796527 -14.381877 0.000000 0.000000 0.000000 -2.816028 -16.229716 4.285432 -49.213372 -48.456158 14.018628 125.202570 -30.575270 -62.150253 0.000000 0.000000 0.000000 -12.570262 22.663042 6.082074 -167.862656 61.235319 -153.524060 -68.484249 16.135302 -10.950280 0.000000 0.000000 0.000000 
-0.012346 0.947011 -0.031392 -1.557133 5.808622 7.868562 1.587668 -0.548585 -6.379041 2.048177 -0.154263 -0.833934 -2.483111 -0.485248 8.315104 0.000000 0.000000 0.000000 0.826245 0.783741 -7.526208 -3.717946 0.405875 -0.137149 4.405379 4.810852 11.442661 0.000000 0.000000 0.000000 6.720442 0.500666 -8.219539 -6.447352 2.836928 -5.674094 -4.337982 12.494525 -6.936612 15.069661 -6.707364 -14.488393 0.000000 0.000000 0.000000 -1.587441 -16.503963 4.572848 -50.435981 -50.827108 15.414501 124.453119 -28.765423 -58.546397 0.000000 0.000000 0.000000 -14.247437 23.148849 5.852541 -163.902948 62.175977 -147.023572 -69.270121 12.211691 -8.517437 0.000000 0.000000 0.000000 
-0.012164 0.948177 -0.032212 -1.662401 5.779176 8.031971 1.785454 -0.555212 -6.488323 1.873435 -0.125913 -1.081016 -2.575406 -0.431418 8.766392 0.000000 0.000000 0.000000 0.887632 0.797637 -7.644773 -3.661849 0.381872 -0.386477 4.540436 4.810666 11.999810 0.000000 0.000000 0.000000 6.437635 0.499019 -8.330431 -6.528529 2.861010 -5.930172 -4.443153 12.052968 -6.827000 15.040091 -6.508503 -15.145218 0.000000 0.000000 0.000000 -0.643802 -16.806995 4.829705 -50.463888 -53.740609 16.649160 123.000344 -27.295376 -54.473461 0.000000 0.000000 0.000000 -15.576948 23.221462 5.557647 -160.875707 62.476299 -142.101977 -69.802593 9.438068 -6.761976 0.000000 0.000000 0.000000 
-0.011922 0.948740 -0.032577 -1.663918 6.519377 8.114080 2.260452 -0.543555 -6.379538 1.148588 -0.034233 -1.683038 -3.042425 -1.004498 9.133005 0.000000 0.000000 0.000000 1.358119 0.822643 -7.726161 -4.407768 0.472900 -0.286589 4.202484 4.197040 12.128173 0.000000 0.000000 0.000000 6.036817 0.483204 -8.436130 -6.500999 2.851767 -6.037864 -4.711118 11.265318 -6.870679 14.922077 -6.454969 -15.124782 0.000000 0.000000 0.000000 0.581409 -17.091505 5.091672 -50.786462 -56.331110 17.853608 121.614114 -26.215984 -51.342562 0.000000 0.000000 0.000000 -16.566214 23.082144 5.298631 -159.294575 63.759339 -140.447375 -70.457171 8.886851 -6.363114 0.000000 0.000000 0.000000 
-0.011314 0.949109 -0.032723 -1.933069 6.621008 7.992947 2.568329 -0.515854 -6.036378 1.068682 -0.007810 -2.148262 -3.124482 -1.080745 9.249083 0.000000 0.000000 0.000000 1.701354 0.802698 -7.427812 -4.546631 0.460980 -0.642023 4.240716 4.148298 12.436780 0.000000 0.000000 0.000000 6.159177 0.484462 -8.394140 -6.563969 2.880471 -5.952438 -4.749522 10.776772 -7.150745 14.640784 -6.332711 -14.981648 0.000000 0.000000 0.000000 1.039892 -16.946778 5.120171 -51.559649 -57.856830 18.992590 120.986863 -26.467791 -50.957770 0.000000 0.000000 0.000000 -16.957743 23.481927 5.356137 -159.139087 65.449334 -141.765544 -71.660717 10.449585 -7.363995 0.000000 0.000000 0.000000 
-0.010227 0.948710 -0.032976 -2.031980 6.955178 7.896096 3.169424 -0.505999 -5.924284 0.128331 0.067931 -2.286268 -3.277261 -1.369157 9.159855 0.000000 0.000000 0.000000 1.970210 0.781657 -7.149801 -4.907701 0.478776 -0.915905 4.083704 3.908584 12.406129 0.000000 0.000000 0.000000 5.960573 0.478059 -8.419530 -6.357998 2.806976 -5.773430 -5.059488 11.000507 -7.328453 14.194757 -6.075638 -14.773996 0.000000 0.000000 0.000000 1.586947 -17.298609 5.273494 -51.672858 -58.897403 19.339885 119.975881 -27.272188 -51.547589 0.000000 0.000000 0.000000 -16.593598 23.215197 5.353135 -160.979600 68.152712 -146.183757 -73.013130 12.962033 -9.072097 0.000000 0.000000 0.000000 
-0.008962 0.948340 -0.033610 -2.271863 6.831159 7.610309 3.318784 -0.476694 -5.517233 0.141030 0.074715 -2.515596 -3.177110 -1.312367 8.950662 0.000000 0.000000 0.000000 2.144504 0.744437 -6.767634 -4.923174 0.458700 -1.177091 4.174201 4.045609 12.451546 0.000000 0.000000 0.000000 6.074935 0.488667 -8.414987 -6.068492 2.688800 -5.989880 -4.871142 11.293022 -6.948698 13.633271 -5.948106 -14.031944 0.000000 0.000000 0.000000 1.655307 -17.186777 5.247699 -50.990751 -58.888902 18.899515 119.385212 -27.924954 -51.996022 0.000000 0.000000 0.000000 -15.727989 23.554731 5.628987 -164.469198 71.919102 -153.664762 -74.685011 17.719410 -12.320214 0.000000 0.000000 0.000000 
-0.007776 0.948557 -0.034652 -2.437142 6.847874 7.486089 3.743753 -0.478143 -5.555987 -0.439212 0.111192 -2.354368 -3.187790 -1.331590 8.954220 0.000000 0.000000 0.000000 2.308534 0.754054 -6.806743 -5.040906 0.484612 -1.007803 4.191056 4.021304 12.587754 0.000000 0.000000 0.000000 5.959261 0.499315 -8.561153 -5.559821 2.496350 -5.534233 -5.038708 11.257070 -7.004828 12.633431 -5.345732 -13.917308 0.000000 0.000000 0.000000 1.998929 -16.450048 5.082314 -50.647429 -58.884601 18.660574 117.963524 -29.442883 -52.974399 0.000000 0.000000 0.000000 -14.864148 22.991248 5.673340 -172.340827 75.782059 -166.103514 -77.080107 22.483802 -15.923388 0.000000 0.000000 0.000000 
-0.006793 0.949424 -0.035738 -2.548012 6.592074 7.577808 3.636264 -0.469970 -5.429399 -0.205670 0.109008 -2.830191 -3.154706 -1.117090 9.306895 0.000000 0.000000 0.000000 2.069517 0.747695 -6.817234 -4.570864 0.406437 -1.374417 4.436163 4.223934 13.107723 0.000000 0.000000 0.000000 5.767289 0.506274 -8.713418 -4.846012 2.203693 -5.805936 -4.625915 11.254141 -6.349814 11.854162 -4.993580 -13.552457 0.000000 0.000000 0.000000 1.942554 -14.767566 4.608682 -50.180609 -58.295464 18.156810 117.216763 -30.383767 -53.312003 0.000000 0.000000 0.000000 -13.863630 21.678147 5.492080 167.173661 78.698418 167.110831 -80.849343 29.031131 -21.710459 0.000000 0.000000 0.000000 
-0.005732 0.949663 -0.036664 -2.558958 6.410277 7.850123 3.787327 -0.459924 -5.235182 -0.613222 0.161194 -3.757148 -3.177892 -0.987701 9.690234 0.000000 0.000000 0.000000 1.730252 0.768181 -7.096744 -4.120089 0.347592 -1.547247 4.572705 4.349159 13.352153 0.000000 0.000000 0.000000 5.073505 0.521479 -9.297358 -4.393240 2.021019 -5.496381 -4.033922 10.940288 -6.294024 10.789818 -4.363381 -13.572431 0.000000 0.000000 0.000000 2.570210 -13.007498 4.221453 -50.763223 -56.964506 17.848639 117.550261 -32.298767 -56.000389 0.000000 0.000000 0.000000 -11.930318 19.091531 5.127532 122.858340 78.883335 113.857307 -86.619957 37.666083 -30.700481 0.000000 0.000000 0.000000 
-0.004487 0.950767 -0.037220 -2.734692 6.373287 7.642714 3.356172 -0.417277 -4.594694 0.321454 0.131024 -4.565601 -3.275022 -0.952633 10.082240 0.000000 0.000000 0.000000 1.591929 0.705152 -6.547141 -3.677444 0.255425 -2.237407 4.767067 4.417076 14.011631 0.000000 0.000000 0.000000 4.743237 0.524492 -9.479307 -3.404008 1.623862 -5.923741 -3.570631 10.146038 -5.415645 9.049708 -3.785465 -11.845506 0.000000 0.000000 0.000000 2.779760 -9.841671 3.388856 -52.536582 -53.639109 17.107087 118.447248 -35.406722 -60.602158 0.000000 0.000000 0.000000 -10.945411 16.407617 4.471127 81.049448 73.366746 64.121412 -95.712773 44.544975 -41.363063 0.000000 0.000000 0.000000 
-0.002756 0.951757 -0.037481 -2.449648 6.367038 7.801429 2.406178 -0.456041 -5.216763 1.247302 0.045956 -3.733563 -3.286848 -0.909532 10.188521 0.000000 0.000000 0.000000 0.556620 0.695157 -6.701159 -2.596290 0.156759 -2.233278 4.840666 4.393572 14.374718 0.000000 0.000000 0.000000 4.041347 0.512204 -9.806759 -3.286910 1.575539 -5.754279 -2.698721 9.310205 -5.129495 8.166277 -3.279673 -11.911050 0.000000 0.000000 0.000000 1.502278 -7.389416 2.471590 -53.672273 -48.641557 15.469409 122.152223 -40.142933 -70.387937 0.000000 0.000000 0.000000 -10.059207 12.479233 3.433420 58.637786 63.464746 36.181853 -103.711995 47.712194 -49.222124 0.000000 0.000000 0.000000 
-0.000912 0.952305 -0.037507 -2.403225 7.385857 8.067362 1.966639 -0.461779 -5.263128 1.898891 0.039128 -4.418714 -3.875028 -1.620045 10.541904 0.000000 0.000000 0.000000 -0.149386 0.667324 -6.595818 -2.166846 0.160349 -1.563308 5.095487 5.963887 12.413547 0.000000 0.000000 0.000000 3.808567 0.524038 -10.535047 -2.479625 1.274706 -6.648379 -3.188639 8.096362 -3.558184 8.019708 -3.317789 -11.562626 0.000000 0.000000 0.000000 0.938765 -3.767924 1.311808 -56.248032 -42.453013 13.104313 126.794555 -47.553279 -85.212633 0.000000 0.000000 0.000000 -10.098007 7.395911 1.887334 46.041994 52.087059 20.721488 -105.956001 45.794553 -47.171478 0.000000 0.000000 0.000000 
0.001009 0.953902 -0.037515 -2.193313 8.625880 8.199344 1.060553 -0.509131 -5.849379 3.083636 -0.052989 -3.898352 -4.567653 -2.443636 10.928153 0.000000 0.000000 0.000000 -1.014796 0.675639 -7.001168 -2.118315 0.257670 0.183509 5.738444 8.131654 10.977418 0.000000 0.000000 0.000000 3.895700 0.485947 -10.186509 -2.786218 1.411777 -6.743379 -3.379903 6.256296 -3.442102 7.951100 -3.295065 -11.766903 0.000000 0.000000 0.000000 -1.089384 -0.316589 -0.173990 -56.446405 -35.060723 9.732753 135.055261 -54.736558 -104.247881 0.000000 0.000000 0.000000 -10.760509 2.704505 0.601472 38.084966 44.333026 13.063292 -101.158102 36.640556 -32.828128 0.000000 0.000000 0.000000 
0.002484 0.954549 -0.037992 -1.717252 9.636032 8.304225 0.750588 -0.540015 -6.202106 2.705073 -0.040211 -3.636623 -5.176259 -3.176535 11.263314 0.000000 0.000000 0.000000 -1.570990 0.631561 -6.733831 -2.790729 0.389707 1.031981 5.828179 9.543333 8.886820 0.000000 0.000000 0.000000 3.417759 0.434752 -9.939434 -2.623530 1.377902 -7.704012 -4.015715 5.147094 -1.869085 8.018978 -3.414973 -11.635797 0.000000 0.000000 0.000000 -1.550182 3.193130 -1.390601 -56.827392 -27.193274 5.692553 149.129941 -62.886171 -132.262712 0.000000 0.000000 0.000000 -11.448536 -2.135580 -0.718295 31.235997 37.637007 7.943489 -90.751509 25.756702 -16.117499 0.000000 0.000000 0.000000 
0.003389 0.955467 -0.039051 -1.386429 11.439732 8.430784 0.095179 -0.533363 -6.141431 3.385977 -0.030677 -4.425067 -6.281621 -4.410404 11.959460 0.000000 0.000000 0.000000 -1.476114 0.654397 -7.076273 -4.157292 0.686689 2.844494 5.636561 10.307975 7.033754 0.000000 0.000000 0.000000 3.430856 0.353086 -8.768916 -2.727463 1.463759 -8.935565 -5.016145 3.382806 -0.820959 8.044493 -3.478416 -11.615022 0.000000 0.000000 0.000000 -2.679731 5.794666 -2.536008 -55.281718 -18.895074 1.612912 174.952834 -68.279462 -173.176150 0.000000 0.000000 0.000000 -11.639513 -5.883284 -1.654057 25.485542 32.430269 4.703191 -81.375065 16.640094 -5.836783 0.000000 0.000000 0.000000 
0.003971 0.955730 -0.040362 -1.051591 12.139175 8.578029 0.017963 -0.563591 -6.465198 2.900929 -0.008751 -4.314626 -6.712094 -4.888600 12.232151 0.000000 0.000000 0.000000 -1.480212 0.683105 -7.506859 -3.992357 0.690688 3.264030 4.539239 7.871437 7.241708 0.000000 0.000000 0.000000 3.136451 0.302700 -8.034147 -2.679855 1.474545 -10.110231 -5.688392 2.424029 0.669309 7.826316 -3.189290 -12.527509 0.000000 0.000000 0.000000 -2.708757 7.788419 -3.208150 -54.448456 -11.631896 -1.853279 -148.135230 -69.053604 134.160938 0.000000 0.000000 0.000000 -12.063371 -8.553727 -2.295617 21.430404 28.602964 2.844457 -72.391152 10.058017 -0.323488 0.000000 0.000000 0.000000 
